<?xml version="1.0" standalone="no"?>
<!DOCTYPE svg PUBLIC "-//W3C//DTD SVG 20010904//EN"
 "http://www.w3.org/TR/2001/REC-SVG-20010904/DTD/svg10.dtd">
<svg version="1.0" xmlns="http://www.w3.org/2000/svg"
 width="534.000000pt" height="534.000000pt" viewBox="0 0 534.000000 534.000000"
 preserveAspectRatio="xMidYMid meet">
<metadata>
Created by potrace 1.11, written by Peter Selinger 2001-2013
</metadata>
<g transform="translate(0.000000,534.000000) scale(0.100000,-0.100000)"
fill="#000000" stroke="none">
<path d="M3108 4872 c-324 -1 -588 -4 -588 -5 0 -4 73 -174 106 -245 13 -29
24 -55 24 -57 0 -2 11 -28 24 -57 13 -29 34 -75 46 -103 12 -27 47 -108 78
-180 l58 -130 489 -1 c356 0 506 -4 550 -13 237 -51 430 -211 518 -431 14 -36
28 -79 31 -95 3 -17 8 -41 11 -55 9 -44 7 -176 -5 -241 -43 -234 -223 -443
-455 -527 -90 -32 -104 -34 -322 -39 -182 -5 -201 -7 -196 -22 3 -9 17 -40 30
-70 27 -60 299 -684 373 -857 27 -61 57 -131 68 -155 17 -37 80 -181 174 -399
10 -25 23 -54 29 -65 5 -11 72 -164 149 -340 l139 -320 446 -3 c245 -1 445 -1
445 1 0 2 -23 55 -50 118 -28 63 -55 123 -59 134 -5 11 -19 43 -31 70 -13 28
-79 178 -147 335 -69 157 -133 303 -143 325 -60 135 -98 222 -175 400 -48 110
-96 219 -107 243 -10 24 -18 47 -16 52 2 4 37 33 78 64 457 345 675 917 564
1480 -57 285 -209 566 -419 769 -204 199 -493 353 -750 402 -104 20 -157 21
-967 17z"/>
<path d="M1917 4833 c-4 -23 -76 -192 -152 -358 -7 -16 -108 -247 -224 -512
-116 -265 -222 -506 -235 -535 -13 -29 -53 -120 -89 -203 -64 -150 -166 -383
-192 -440 -7 -16 -55 -124 -105 -240 -51 -115 -104 -235 -117 -265 -14 -30
-29 -64 -33 -75 -4 -11 -51 -119 -105 -240 -53 -121 -103 -236 -112 -255 -8
-19 -21 -48 -28 -65 -8 -16 -64 -145 -126 -285 -61 -140 -119 -273 -129 -295
-10 -22 -39 -89 -65 -150 -26 -60 -62 -143 -81 -183 -19 -41 -34 -76 -34 -79
0 -3 -15 -38 -34 -77 -18 -40 -37 -82 -40 -94 l-7 -22 402 2 403 3 38 85 c20
47 46 105 57 130 11 25 45 104 76 175 31 72 63 144 70 160 7 17 66 149 130
295 64 146 122 279 130 295 7 17 31 71 52 120 22 50 48 109 58 133 l19 42 879
0 878 0 -7 23 c-4 12 -17 45 -29 72 -13 28 -55 124 -95 215 -40 91 -87 199
-105 240 -18 41 -49 111 -68 155 l-34 80 -540 5 -540 5 74 170 c41 94 83 190
95 215 11 25 35 79 53 120 65 152 278 636 296 674 10 22 19 44 19 49 0 8 -103
260 -140 342 -10 22 -42 96 -70 165 -29 69 -60 143 -70 165 -10 22 -39 89 -64
150 -26 60 -48 111 -50 113 -2 1 -6 -10 -9 -25z"/>
</g>
</svg>
