<?xml version="1.0"?>
<svg xmlns="http://www.w3.org/2000/svg" height="512px" viewBox="-37 0 512 512" width="512px" class=""><g><path d="m397.964844 234.640625c0 80.304687-65.101563 145.410156-145.410156 145.410156-36.335938 0-69.558594-13.328125-95.046876-35.363281-30.84375-26.660156-50.363281-66.074219-50.363281-110.046875 0-63.851563 41.15625-118.089844 98.386719-137.636719 14.75-5.039062 30.570312-7.769531 47.023438-7.769531 80.308593-.003906 145.410156 65.097656 145.410156 145.40625zm0 0" fill="#fff" data-original="#FFF" class=""/><path d="m273.359375 234.640625c0 11.488281-9.3125 20.804687-20.804687 20.804687-11.488282 0-20.804688-9.316406-20.804688-20.804687 0-11.492187 9.316406-20.804687 20.804688-20.804687 11.492187 0 20.804687 9.3125 20.804687 20.804687zm0 0" fill="#bebebe" data-original="#BEBEBE" class="active-path" style="fill:#F6F4F1" data-old_color="#BEBEBE"/><path d="m112.191406 10.050781c-42.953125 0-80.585937 22.734375-101.542968 56.820313l101.542968 101.542968 39.246094-39.25 62.292969-62.292968c-20.953125-34.085938-58.589844-56.820313-101.539063-56.820313zm0 0" fill="#ffcdac" data-original="#FFCDAC" class="" style="fill:#F6F4F1" data-old_color="#FFCDAC"/><path d="m112.191406 168.414062-65.160156 29.847657-36.382812-131.390625zm0 0" fill="#fff" data-original="#FFF" class=""/><path d="m112.191406 168.414062 65.320313 29.9375 36.222656-131.480468zm0 0" fill="#fff" data-original="#FFF" class=""/><path d="m133.761719 209.890625 14.050781-25.160156-35.621094-16.316407-35.625 16.316407 13.976563 25.160156-24.179688 174.121094c-2.902343 20.894531 1.683594 42.144531 12.941407 59.984375l36.578124 57.953125 35.617188-56.433594c11.839844-18.757813 16.277344-41.246094 12.453125-63.097656zm0 0" fill="#a2d5f2" data-original="#A2D5F2" class="" style="fill:#F6F4F1" data-old_color="#A2D5F2"/><path d="m251.957031 79.183594c-11.078125 0-22.035156 1.15625-32.742187 3.453125l3.574218-12.972657c.066407-.238281.128907-.484374.179688-.726562 0-.007812.003906-.015625.003906-.027344.011719-.050781.023438-.105468.03125-.160156.007813-.019531.007813-.035156.011719-.054688.007813-.042968.015625-.082031.023437-.125.003907-.03125.011719-.0625.015626-.089843.003906-.03125.007812-.0625.011718-.09375.007813-.039063.015625-.082031.019532-.121094.003906-.019531.003906-.039063.007812-.058594.007812-.054687.015625-.105469.019531-.15625.003907-.007812.003907-.015625.003907-.023437.070312-.613282.085937-1.226563.042968-1.832032 0-.011718 0-.019531 0-.027343-.003906-.058594-.007812-.117188-.011718-.171875-.003907-.023438-.007813-.042969-.007813-.0625-.003906-.046875-.007813-.089844-.011719-.136719-.003906-.035156-.007812-.066406-.011718-.101563-.003907-.03125-.007813-.0625-.011719-.09375-.007813-.046874-.011719-.089843-.019531-.136718-.003907-.019532-.003907-.039063-.007813-.058594-.007813-.054688-.015625-.105469-.023437-.160156-.003907-.011719-.003907-.027344-.007813-.039063-.011719-.0625-.019531-.125-.03125-.1875 0 0 0-.003906-.003906-.003906-.132813-.722656-.351563-1.4375-.648438-2.125-.003906-.007813-.003906-.011719-.007812-.019531-.023438-.054688-.046875-.109375-.074219-.164063-.003906-.011719-.011719-.027343-.015625-.039062-.023437-.046875-.042969-.09375-.066406-.136719-.015625-.035156-.03125-.066406-.046875-.097656-.015625-.027344-.027344-.054688-.039063-.082032-.03125-.058593-.0625-.121093-.09375-.179687-.113281-.214844-.234375-.421875-.359375-.628906-23.726562-38.535157-64.863281-61.542969-110.066406-61.542969-45.179688 0-86.300781 22.984375-110.03125 61.488281-.214844.34375-.410156.695313-.582031 1.058594-.011719.019531-.019531.039063-.027344.058594-.019531.042969-.039063.082031-.058594.125-.015625.035156-.03125.074219-.050781.113281-.007812.019531-.019531.042969-.027344.066406-.019531.046875-.039062.09375-.058594.140625-.007812.015625-.011718.03125-.019531.042969-.023437.054688-.042969.109375-.0625.164062-.003906.003907-.007812.011719-.011719.019532-.019531.058594-.042968.117187-.0625.175781l-.007812.015625c-.019531.058594-.039062.117188-.058594.175781-.003906.003907-.003906.007813-.007812.011719-.019532.0625-.039063.125-.058594.1875 0 0 0 .003906-.003906.003906-.019532.0625-.035156.125-.054688.1875 0 .003906-.003906.007813-.003906.011719-.019531.058594-.035156.117187-.050781.179687-.003907.007813-.003907.011719-.007813.019532-.015625.058594-.03125.113281-.042968.171875-.003907.011719-.007813.019531-.007813.03125-.015625.054687-.027344.105469-.039063.160156-.003906.015625-.007812.035156-.011718.050781-.011719.046875-.019532.09375-.03125.140625-.003906.023438-.011719.046875-.015625.070313-.007813.042968-.015625.082031-.023438.125-.003906.03125-.011719.066406-.015625.097656-.007812.03125-.011718.0625-.019531.09375-.007813.042969-.011719.089844-.019531.132812-.003906.019532-.007813.039063-.011719.058594-.007813.058594-.015625.117188-.0234375.171875v.023438c-.1523437 1.140625-.1054687 2.316406.1562505 3.480469v.007812c.015624.058594.027343.121094.042968.179688.003906.011718.007813.019531.007813.03125.015625.050781.027343.105468.039062.15625.007813.019531.011719.039062.015625.058593.007813.023438.011719.042969.019532.0625l36.378906 131.390625c.785156 2.835938 2.777344 5.1875 5.445312 6.429688 1.34375.625 2.792969.9375 4.242188.9375 1.425781 0 2.855468-.304688 4.183594-.910156l21.085937-9.660157 7.828125 14.097657-23.722656 170.792968c-3.222656 23.214844 1.890625 46.910156 14.398437 66.730469l36.578125 57.953125c1.839844 2.917969 5.050782 4.6875 8.5 4.6875 3.449219 0 6.65625-1.769531 8.496094-4.6875l35.617188-56.433594c13.199218-20.90625 18.117187-45.835937 13.855468-70.191406l-2.339844-13.375c24.253907 14.8125 52.28125 22.785156 81.042969 22.785156 85.71875 0 155.457031-69.738281 155.457031-155.457031s-69.738281-155.457031-155.457031-155.457031zm-100.1875 96.589844c-.121093-.0625-.242187-.121094-.367187-.179688l-22.480469-10.296875 64.421875-64.421875-22.980469 83.417969zm-40.175781-155.675782c35.554688 0 68.132812 16.859375 88.625 45.480469l-39.871094 39.867187-48.753906 48.757813-88.625-88.625c20.492188-28.621094 53.070312-45.480469 88.625-45.480469zm-81.679688 80.847656 64.351563 64.351563-22.480469 10.296875c-.019531.007812-.039062.019531-.058594.027344l-18.757812 8.589844zm112.488282 339.207032-17.445313 27.648437v-87.710937c0-5.546875-4.5-10.046875-10.050781-10.046875s-10.050781 4.5-10.050781 10.046875v86.511718l-17.652344-27.96875c-9.976563-15.8125-14.058594-34.71875-11.484375-53.238281l24.179688-174.121093c.300781-2.160157-.109376-4.359376-1.167969-6.261719l-8.703125-15.667969 3.710937-1.699219 17.855469-8.179687 21.539062 9.875-8.742187 15.652344c-1.125 2.015624-1.519531 4.355468-1.125 6.628906l30.191406 172.527344c3.402344 19.433593-.523437 39.320312-11.054687 56.003906zm119.605468-70.523438v-18.542968c0-5.550782-4.5-10.050782-10.050781-10.050782-5.546875 0-10.046875 4.5-10.046875 10.050782v18.539062c-27.792968-2.066406-54.335937-12.667969-75.914062-30.417969l-22.316406-127.53125 7.78125-13.933593 21.265624 9.746093c1.328126.609375 2.757813.914063 4.1875.914063 1.449219 0 2.902344-.316406 4.246094-.941406 2.671875-1.246094 4.660156-3.601563 5.441406-6.441407l26.46875-96.074219c9.375-2.804687 19.027344-4.578124 28.839844-5.296874v15.109374c0 5.546876 4.5 10.046876 10.046875 10.046876 5.550781 0 10.050781-4.5 10.050781-10.046876v-15.109374c66.070313 4.875 119.105469 57.382812 124.800782 123.222656h-16.6875c-5.546875 0-10.046875 4.5-10.046875 10.046875 0 5.550781 4.5 10.050781 10.046875 10.050781h16.941406c-4.113281 67.445312-57.839844 121.703125-125.054688 126.660156zm0 0" data-original="#000000" class="" style="fill:#1689D6" data-old_color="#1689d6"/><path d="m280.699219 245.863281c1.363281-3.480469 2.113281-7.265625 2.113281-11.222656 0-13.496094-8.710938-24.996094-20.804688-29.175781v-44.949219c0-5.550781-4.5-10.050781-10.050781-10.050781-5.546875 0-10.046875 4.5-10.046875 10.050781v44.949219c-12.097656 4.179687-20.804687 15.679687-20.804687 29.175781 0 17.011719 13.839843 30.851563 30.851562 30.851563 5.714844 0 11.074219-1.558594 15.667969-4.28125l55.59375 55.59375c1.960938 1.960937 4.535156 2.945312 7.105469 2.945312 2.570312 0 5.144531-.984375 7.105469-2.945312 3.925781-3.925782 3.925781-10.289063 0-14.210938zm-39.496094-11.222656c0-5.929687 4.824219-10.757813 10.753906-10.757813 5.929688 0 10.757813 4.828126 10.757813 10.757813s-4.828125 10.753906-10.757813 10.753906c-5.929687 0-10.753906-4.824219-10.753906-10.753906zm0 0" data-original="#000000" class="" style="fill:#1689D6" data-old_color="#1689d6"/><path d="m124.144531 336.375c-2.074219-5.148438-7.929687-7.640625-13.078125-5.566406-5.144531 2.074218-7.640625 7.929687-5.5625 13.078125l.164063.40625c1.578125 3.917969 5.34375 6.296875 9.324219 6.296875 1.25 0 2.519531-.234375 3.75-.730469 5.148437-2.074219 7.640624-7.929687 5.566406-13.078125zm0 0" data-original="#000000" class="" style="fill:#1689D6" data-old_color="#1689d6"/><path d="m438.160156 148.324219c-9.34375-20.964844-22.382812-39.894531-38.753906-56.265625-13.449219-13.453125-28.726562-24.71875-45.414062-33.492188-4.910157-2.578125-10.988282-.691406-13.570313 4.21875-2.582031 4.914063-.695313 10.992188 4.21875 13.574219 14.890625 7.828125 28.535156 17.890625 40.554687 29.910156 14.625 14.625 26.265626 31.527344 34.605469 50.234375 1.667969 3.742188 5.339844 5.960938 9.183594 5.960938 1.367187 0 2.757813-.277344 4.085937-.871094 5.070313-2.261719 7.347657-8.203125 5.089844-13.269531zm0 0" data-original="#000000" class="" style="fill:#1689D6" data-old_color="#1689d6"/><path d="m302.527344 58.410156c1.816406 3.367188 5.277344 5.28125 8.855468 5.28125 1.609376 0 3.242188-.386718 4.757813-1.203125 4.886719-2.636719 6.710937-8.730469 4.078125-13.617187l-.109375-.199219c-2.632813-4.886719-8.730469-6.714844-13.613281-4.074219-4.886719 2.632813-6.710938 8.726563-4.078125 13.613282zm0 0" data-original="#000000" class="" style="fill:#1689D6" data-old_color="#1689d6"/></g> </svg>
