<?xml version="1.0"?>
<svg xmlns="http://www.w3.org/2000/svg" height="512px" viewBox="0 0 368 368" width="512px" class=""><g><path d="m184 312c-18.800781 0-36.558594-4-52.640625-11.359375l-35.679687 35.679687c25.921874 15.039063 56.082031 23.679688 88.320312 23.679688 97.199219 0 176-78.800781 176-176 0-32.238281-8.640625-62.398438-23.679688-88.320312l-35.679687 35.679687c7.359375 16.082031 11.359375 33.839844 11.359375 52.640625 0 70.71875-57.28125 128-128 128zm0 0" fill="#cce4ff" data-original="#CCE4FF" class="active-path" style="fill:#FFFFFF" data-old_color="#ffffff"/><path d="m67.359375 236.640625c-7.359375-16.082031-11.359375-33.839844-11.359375-52.640625 0-70.71875 57.28125-128 128-128 18.800781 0 36.558594 4 52.640625 11.359375l35.679687-35.679687c-25.921874-15.039063-56.082031-23.679688-88.320312-23.679688-97.199219 0-176 78.800781-176 176 0 32.238281 8.640625 62.398438 23.679688 88.320312zm0 0" fill="#cce4ff" data-original="#CCE4FF" class="active-path" style="fill:#FFFFFF" data-old_color="#ffffff"/><path d="m24.761719 276.34375c.007812 0 .007812 0 0 0 16.109375 27.640625 39.238281 50.769531 66.886719 66.886719.007812 0 .007812 0 .015624.007812 27.921876 16.203125 59.847657 24.761719 92.335938 24.761719 101.464844 0 184-82.542969 184-184 0-32.488281-8.558594-64.414062-24.761719-92.335938 0 0-.007812 0-.007812-.007812-16.109375-27.632812-39.230469-50.761719-66.878907-66.886719h-.007812c-27.929688-16.210937-59.855469-24.769531-92.34375-24.769531-101.464844 0-184 82.542969-184 184 0 32.488281 8.558594 64.414062 24.761719 92.34375 0-.007812 0-.007812 0 0zm17.078125-2.871094 23.351562-23.351562c12.28125 22.191406 30.527344 40.421875 52.6875 52.6875l-23.359375 23.359375c-21.222656-13.449219-39.253906-31.480469-52.679687-52.695313zm22.160156-89.472656c0-66.167969 53.832031-120 120-120 17.304688 0 33.894531 3.574219 49.367188 10.664062 26.710937 11.960938 48.007812 33.265626 59.96875 59.96875.015624.015626.023437.039063.03125.054688 7.058593 15.425781 10.632812 32.007812 10.632812 49.3125 0 66.167969-53.832031 120-120 120-17.304688 0-33.894531-3.574219-49.367188-10.664062-26.710937-11.960938-48.007812-33.265626-60-60.023438-7.058593-15.425781-10.632812-32.007812-10.632812-49.3125zm288 0c0 92.640625-75.367188 168-168 168-26.144531 0-51.878906-6.0625-75.0625-17.625l24.375-24.382812c16.023438 6.527343 33.007812 10.007812 50.6875 10.007812 74.992188 0 136-61.007812 136-136 0-17.679688-3.480469-34.664062-10-50.6875l24.375-24.375c11.5625 23.183594 17.625 48.917969 17.625 75.0625zm-25.839844-89.472656-23.359375 23.359375c-12.28125-22.191407-30.519531-40.429688-52.6875-52.6875l23.359375-23.359375c21.230469 13.441406 39.261719 31.472656 52.6875 52.6875zm-142.160156-78.527344c26.144531 0 51.878906 6.0625 75.0625 17.625l-24.375 24.382812c-16.023438-6.527343-33.007812-10.007812-50.6875-10.007812-74.992188 0-136 61.007812-136 136 0 17.695312 3.480469 34.695312 10 50.6875l-24.375 24.375c-11.5625-23.183594-17.625-48.917969-17.625-75.0625 0-92.640625 75.367188-168 168-168zm0 0" fill="#007aff" data-original="#007AFF" class="" style="fill:#1689D6" data-old_color="#1689d6"/></g> </svg>
