<svg xmlns="http://www.w3.org/2000/svg" width="1928.332" height="242.572" viewBox="0 0 1928.332 242.572"><path d="M1928.332,242.572H0V164.258c5.319,1.6,10.952,3.242,16.745,4.885,17.678,5.016,45.874,12.585,79.8,20.159,38.138,8.512,75.6,15.295,111.348,20.159,21.234,2.889,42.082,5.124,61.964,6.643,21.879,1.672,43.143,2.52,63.2,2.52,19.466,0,38.274-.8,55.9-2.375a466.094,466.094,0,0,0,53.52-7.784c39.138-8.174,75.248-17.589,110.17-26.694l.016,0,.011,0,.019,0,.108-.028.057-.015c22.162-5.778,43.095-11.235,64.877-16.437,24.732-5.9,46.059-10.4,67.117-14.147,24.827-4.416,48.656-7.653,72.85-9.9,13.1-1.213,26.458-2.14,39.719-2.754,13.9-.644,28.211-.971,42.523-.971,16.233,0,33.06.42,50.014,1.249,17.613.862,35.938,2.193,54.468,3.955,19.2,1.827,39.224,4.172,59.516,6.97,20.952,2.889,42.874,6.353,65.16,10.295,59.44,10.515,125.065,15.847,195.052,15.847,36.221,0,73.618-1.452,111.151-4.315,36.877-2.812,74.245-7.012,111.068-12.485,36.492-5.422,72.779-12.141,107.852-19.971s69.22-16.835,101.5-26.772C1794.877,81.769,1875.307,42.942,1928.332,0V242.571Z" fill="#fff" opacity="0.61"/></svg>