<svg xmlns="http://www.w3.org/2000/svg" width="1928.333" height="233.833" viewBox="0 0 1928.333 233.833"><path d="M1928.333,233.833H0V186.868c2.509.82,5.139,1.655,7.816,2.481,12.969,4,34.329,10.037,62.439,16.071,31.609,6.787,65.143,12.195,99.67,16.072a1199.685,1199.685,0,0,0,133.308,7.3c34.78,0,70.373-1.456,105.791-4.328,21.175-1.718,40.582-3.914,59.331-6.712,16.643-2.483,32.335-5.38,47.972-8.856,28.934-6.43,52.6-13.744,75.495-20.817l.039-.012.011,0h.006c27.041-8.357,52.579-16.25,84.663-22.154,17.188-3.162,34.765-5.478,53.736-7.08,21.157-1.785,43.6-2.652,68.618-2.652,18.051,0,37.615.473,58.147,1.406,21.456.975,44.786,2.489,69.343,4.5,25.491,2.089,53.174,4.785,82.279,8.013,30.111,3.34,62.729,7.359,96.949,11.945,29.344,3.932,59.009,6.9,88.172,8.829,28,1.851,56.286,2.789,84.069,2.789,25.468,0,51.186-.788,76.442-2.343,24.149-1.486,48.516-3.713,72.425-6.62,22.8-2.772,45.777-6.233,68.282-10.287,21.39-3.852,42.927-8.341,64.013-13.342a1165.69,1165.69,0,0,0,210.833-71.7c26.3-11.892,52.044-24.777,76.519-38.3,19.576-10.813,38.385-22.052,55.906-33.406,9.132-5.918,17.9-11.862,26.058-17.667V233.832h0Z" fill="#fff"/></svg>