<svg xmlns="http://www.w3.org/2000/svg" width="1928.333" height="237.076" viewBox="0 0 1928.333 237.076"><path d="M1928.332,237.076H0V161.71c16.931,4.179,34.309,8.09,51.65,11.622,32.346,6.589,64.361,11.839,95.155,15.6a905.442,905.442,0,0,0,109.054,7.093c18.373,0,36.2-.707,53-2.1A488.022,488.022,0,0,0,360.324,187c37.291-7.169,72.845-17.307,110.487-28.041l.024-.006.026-.007.013,0c23.33-6.653,47.454-13.533,73.511-20.147,29.482-7.481,57.157-13.5,84.606-18.41,15.9-2.84,32.137-5.376,48.264-7.537,17.356-2.324,35.258-4.3,53.21-5.885,19.075-1.68,38.886-2.967,58.881-3.828,21.1-.907,43.064-1.366,65.28-1.366,22.24,0,45.427.458,68.918,1.363,24.479.942,50.06,2.4,76.032,4.324,26.944,2,55.133,4.569,83.785,7.636,29.655,3.176,60.67,6.978,92.184,11.3,30.76,4.221,61.909,7.41,92.581,9.478,29.336,1.978,58.993,2.981,88.149,2.981,24.563,0,49.385-.711,73.776-2.113,23.329-1.341,46.893-3.351,70.035-5.974,22.061-2.5,44.319-5.623,66.153-9.282,20.765-3.48,41.668-7.531,62.13-12.039a1212.582,1212.582,0,0,0,205.48-64.7c25.723-10.732,50.94-22.358,74.951-34.555,6.563-3.334,13.135-6.762,19.531-10.189V237.075Z" fill="#fff" opacity="0.54"/></svg>