<svg xmlns="http://www.w3.org/2000/svg" viewBox="0 0 1920 48"><defs><style>.cls-1{fill:#fff;}</style></defs><title>multi-wave-white-svg</title><g id="Layer_2" data-name="Layer 2"><g id="Layer_1-2" data-name="Layer 1"><path class="cls-1" d="M1857.9,0c-47.51.25-92.47,7.36-132.58,19.85-105.53,32.87-228.72,34-333.88.63C1350.08,7.37,1303.48,0,1254.19,0c-49.44,0-96.17,7.42-137.62,20.61-103.57,33-226,33-329.58,0C745.54,7.42,698.81,0,649.37,0c-48.24,0-93.9,7.06-134.6,19.67C410,52.09,288.59,52.09,183.85,19.67,143.16,7.06,97.49,0,49.25,0A481.47,481.47,0,0,0,0,2.52V48H1920V3.7A475.73,475.73,0,0,0,1857.9,0Z"/></g></g></svg>