<?xml version="1.0" standalone="no"?>
<!DOCTYPE svg PUBLIC "-//W3C//DTD SVG 20010904//EN"
 "http://www.w3.org/TR/2001/REC-SVG-20010904/DTD/svg10.dtd">
<svg version="1.0" xmlns="http://www.w3.org/2000/svg"
 width="260.000000pt" height="260.000000pt" viewBox="0 0 260.000000 260.000000"
 preserveAspectRatio="xMidYMid meet">
<metadata>
Created by potrace 1.11, written by Peter Selinger 2001-2013
</metadata>
<g transform="translate(0.000000,260.000000) scale(0.100000,-0.100000)"
fill="#000000" stroke="none">
<path d="M1227 2566 c-60 -16 -115 -60 -147 -117 -32 -57 -35 -164 -6 -221 68
-139 245 -179 367 -85 37 29 77 87 88 127 2 8 4 40 3 71 0 155 -151 266 -305
225z"/>
<path d="M515 2226 c-11 -17 -13 -172 -11 -826 2 -747 3 -810 20 -875 48 -181
172 -331 341 -411 172 -83 420 -110 622 -70 110 22 267 87 331 136 117 90 206
220 241 350 19 72 20 111 20 885 1 910 8 834 -74 829 -264 -14 -496 -190 -580
-439 -52 -157 -36 -295 105 -882 23 -93 24 -137 7 -174 -25 -54 -231 -329
-246 -329 -17 1 -233 296 -251 344 -12 33 -13 27 37 251 19 88 37 171 40 185
2 14 17 79 32 145 38 160 44 197 43 282 -3 248 -166 478 -402 571 -69 27 -139
42 -208 46 -45 3 -56 0 -67 -18z"/>
</g>
</svg>
