<svg xmlns="http://www.w3.org/2000/svg" viewBox="0 0 1920 51.34"><defs><style>.cls-1{fill:#fff;}</style></defs><title>multi-wav-sectiontop-white-svg</title><g id="Layer_2" data-name="Layer 2"><g id="Layer_1-2" data-name="Layer 1"><path class="cls-1" d="M0,0V8.52A481.47,481.47,0,0,1,49.25,6c48.24,0,93.91,7.06,134.6,19.67,104.74,32.42,226.19,32.42,330.92,0C555.47,13.06,601.13,6,649.37,6,698.81,6,745.54,13.42,787,26.61c103.57,33,226,33,329.58,0C1158,13.42,1204.75,6,1254.19,6c49.29,0,95.89,7.37,137.25,20.49,105.16,33.36,228.35,32.24,333.88-.63C1765.43,13.37,1810.39,6.26,1857.9,6A475.73,475.73,0,0,1,1920,9.7V0Z"/></g></g></svg>